<svg height="490pt" viewBox="-5 0 490 490.184" width="490pt" xmlns="http://www.w3.org/2000/svg" xmlns:xlink="http://www.w3.org/1999/xlink"><linearGradient id="lg1"><stop offset="0" stop-color="#fc5c7d"/><stop offset=".129" stop-color="#f35e85"/><stop offset=".343" stop-color="#d9659b"/><stop offset=".616" stop-color="#b070bf"/><stop offset=".934" stop-color="#777ff0"/><stop offset="1" stop-color="#6a82fb"/></linearGradient><linearGradient id="linear0" gradientUnits="userSpaceOnUse" x1="138.076" x2="138.076" xlink:href="#lg1" y1="35.432" y2="501.48"/><linearGradient id="linear1" gradientUnits="userSpaceOnUse" x1="374.98" x2="374.98" xlink:href="#lg1" y1="35.432" y2="501.48"/><linearGradient id="linear2" gradientUnits="userSpaceOnUse" x1="345.852" x2="345.852" xlink:href="#lg1" y1="35.432" y2="501.48"/><linearGradient id="linear3" gradientUnits="userSpaceOnUse" x1="240.092" x2="240.092" xlink:href="#lg1" y1="35.432" y2="501.48"/><linearGradient id="linear4" gradientUnits="userSpaceOnUse" x1="244.092" x2="244.092" xlink:href="#lg1" y1="35.432" y2="501.48"/><linearGradient id="linear5" gradientUnits="userSpaceOnUse" x1="304.092" x2="304.092" xlink:href="#lg1" y1="35.432" y2="501.48"/><linearGradient id="linear6" gradientUnits="userSpaceOnUse" x1="176.092" x2="176.092" xlink:href="#lg1" y1="35.432" y2="501.48"/><linearGradient id="linear7" gradientUnits="userSpaceOnUse" x1="292.092" x2="292.092" xlink:href="#lg1" y1="35.432" y2="501.48"/><linearGradient id="linear8" gradientUnits="userSpaceOnUse" x1="104.092" x2="104.092" xlink:href="#lg1" y1="35.432" y2="501.48"/><linearGradient id="linear9" gradientUnits="userSpaceOnUse" x1="64.092" x2="64.092" xlink:href="#lg1" y1="35.432" y2="501.48"/><linearGradient id="linear10" gradientUnits="userSpaceOnUse" x1="388.092" x2="388.092" xlink:href="#lg1" y1="35.432" y2="501.48"/><path d="m112.308594 129.71875-16 .929688c3.109375 49.996093 31.820312 94.839843 75.925781 118.589843l7.554687-14.109375c-39.199218-21.113281-64.71875-60.972656-67.480468-105.410156zm0 0" fill="url(#linear0)"/><path d="m366.109375 144.785156 15.75 2.800782c.992187-5.605469 1.660156-11.257813 1.992187-16.9375l-16-.929688c-.289062 5.050781-.871093 10.082031-1.742187 15.066406zm0 0" fill="url(#linear1)"/><path d="m316.332031 0-8.480469 13.601562c35.179688 22 57.535157 59.660157 60 101.078126l16-.925782c-2.769531-46.613281-27.929687-89-67.519531-113.753906zm0 0" fill="url(#linear2)"/><path d="m352.09375 122.183594c0-61.855469-50.144531-112-112-112-61.859375 0-112 50.144531-112 112 0 61.855468 50.140625 112 112 112 61.828125-.066406 111.933594-50.171875 112-112zm-208 0c0-53.019532 42.980469-96 96-96s96 42.980468 96 96c0 53.019531-42.980469 96-96 96-52.996094-.058594-95.945312-43.003906-96-96zm0 0" fill="url(#linear3)"/><path d="m248.09375 170.183594v8h16v-8.40625c11.644531-1.621094 21.015625-10.382813 23.414062-21.894532 2.402344-11.511718-2.691406-23.289062-12.71875-29.425781 4.871094-6.703125 6.492188-15.230469 4.421876-23.253906-2.070313-8.023437-7.613282-14.699219-15.117188-18.210937v-10.808594h-16v8h-16v-8h-16v8h-16v16h8v64h-8v16h16v8h16v-8zm-24-80h28c6.625 0 12 5.371094 12 12s-5.375 12-12 12h-28zm36 64h-36v-24h36c6.625 0 12 5.371094 12 12s-5.375 12-12 12zm0 0" fill="url(#linear4)"/><path d="m296.09375 114.183594h16v16h-16zm0 0" fill="url(#linear5)"/><path d="m168.09375 114.183594h16v16h-16zm0 0" fill="url(#linear6)"/><path d="m472.09375 194.183594h-32c-2.125 0-4.15625.84375-5.65625 2.34375l-56 56c-1.5 1.5-2.34375 3.535156-2.34375 5.65625v16h-40c-2.125 0-4.15625.84375-5.65625 2.34375l-45.65625 45.65625h-20.6875c-22.082031.027344-39.976562 17.921875-40 40v24h-56c-2.125 0-4.15625.84375-5.65625 2.34375l-56 56c-1.5 1.5-2.34375 3.535156-2.34375 5.65625v32c0 4.417968 3.578125 8 8 8h360c4.417969 0 8-3.582032 8-8v-280c0-4.417969-3.582031-8-8-8zm-8 280h-344v-20.6875l51.308594-51.3125h57.378906l27.3125 27.3125v20.6875h16v-24c-.003906-2.121094-.84375-4.15625-2.347656-5.65625l-29.652344-29.65625v-28.6875c0-13.253906 10.742188-24 24-24h64v-16h-20.691406l32-32h41.378906l27.3125 27.3125v28.6875h16v-32c-.003906-2.121094-.84375-4.15625-2.347656-5.65625l-29.652344-29.65625v-17.375l51.308594-51.3125h20.691406zm0 0" fill="url(#linear7)"/><path d="m8.09375 490.183594h80v-16h-72v-248h44.6875l51.3125 51.3125v20.6875h-32c-2.125 0-4.15625.84375-5.65625 2.34375l-32 32c-1.5 1.5-2.34375 3.535156-2.34375 5.65625v32h16v-28.6875l27.308594-27.3125h33.378906l37.65625 37.65625c1.5 1.5 3.53125 2.34375 5.65625 2.34375h48v-16h-44.691406l-35.308594-35.3125v-28.6875c-.003906-2.121094-.84375-4.15625-2.347656-5.65625l-56-56c-1.496094-1.5-3.53125-2.34375-5.652344-2.34375h-56c-4.421875 0-8 3.582031-8 8v264c0 4.417968 3.578125 8 8 8zm0 0" fill="url(#linear8)"/><path d="m88.09375 442.183594v-16c0-17.671875-14.328125-32-32-32h-16v16h16c8.835938 0 16 7.164062 16 16v16zm0 0" fill="url(#linear9)"/><path d="m360.09375 426.183594v16h16v-16c0-13.253906 10.742188-24 24-24h16v-16h-16c-22.082031.027344-39.976562 17.921875-40 40zm0 0" fill="url(#linear10)"/></svg>